<svg display="none" xmlns="http://www.w3.org/2000/svg">
  <symbol id="icon1" viewBox="0 0 44.053 44.053">
    <g>
      <g>
        <path fill-rule="evenodd" d="m14.411,12.953l-1.454-1.393c-0.803-0.768-2.104-0.768-2.907,0l-7.995,7.658-1.454,1.393c-0.803,0.77-0.803,2.017 0,2.785l1.454,1.393 7.995,7.658c0.803,0.77 2.104,0.77 2.907,0l1.454-1.393c0.803-0.769 0.803-2.016 0-2.784l-6.541-6.266 6.541-6.266c0.803-0.769 0.803-2.015-1.77636e-15-2.785zm-9.448,9.051l7.995,7.659-1.454,1.392-7.995-7.658-1.454-1.393 1.454-1.393 7.995-7.658 1.454,1.393-7.995,7.658zm38.488-1.375l-1.454-1.391-7.995-7.647c-0.803-0.769-2.104-0.769-2.907,0l-1.454,1.391c-0.803,0.768-0.803,2.013 0,2.78l6.541,6.258-6.541,6.257c-0.803,0.768-0.803,2.013 0,2.781l1.454,1.391c0.803,0.768 2.104,0.768 2.907,0l7.995-7.648 1.454-1.39c0.803-0.769 0.803-2.014 0-2.782zm-2.907,2.781l-7.995,7.647-1.454-1.391 7.995-7.648-7.995-7.648 1.454-1.391 7.995,7.647 1.454,1.391-1.454,1.393z" />
      </g>
    </g>
    <g>
      <g>
        <path fill-rule="evenodd" d="m28.321,.697l-1.948-.532c-1.075-0.293-2.186,0.34-2.48,1.415l-9.582,39.3c-0.294,1.074 0.339,2.184 1.415,2.478l1.948,.531c1.076,0.294 2.187-0.339 2.481-1.414l9.582-39.3c0.293-1.076-0.34-2.185-1.416-2.478zm-10.114,41.245l-1.948-.531 9.582-39.3 1.947,.532-9.581,39.299z" />
      </g>
    </g>
  </symbol>
  <symbol id="icon2" viewBox="0 0 64 64">
    <g id="Glyph_copy_2">
      <path d="M61,6.167H3c-1.65,0-3,1.35-3,3v45.667c0,1.65,1.35,3,3,3h58c1.65,0,3-1.35,3-3V9.167C64,7.517,62.65,6.167,61,6.167z    M25.253,13.042h31.863v5.322H21.777L25.253,13.042z M37.226,30.513v-3.869l13.851,5.99v3.304l-13.851,6.032v-3.897l9.666-3.8   L37.226,30.513z M35.945,23.724l-5.053,20.874h-2.849l4.997-20.874H35.945z M26.761,38.058v3.897l-13.838-6.018v-3.332l13.838-5.99   v3.925l-9.652,3.69L26.761,38.058z M17.27,13.985c0.91,0,1.648,0.737,1.648,1.646c0,0.909-0.738,1.646-1.648,1.646   s-1.648-0.737-1.648-1.646C15.621,14.722,16.359,13.985,17.27,13.985z M12.901,13.985c0.91,0,1.648,0.737,1.648,1.646   c0,0.909-0.738,1.646-1.648,1.646c-0.91,0-1.648-0.737-1.648-1.646C11.253,14.722,11.991,13.985,12.901,13.985z M8.532,13.985   c0.91,0,1.648,0.737,1.648,1.646c0,0.909-0.738,1.646-1.648,1.646s-1.648-0.737-1.648-1.646   C6.884,14.722,7.622,13.985,8.532,13.985z M2.242,54.074l4.525-3.437h7.954l-4.51,3.437H2.242z M13.674,54.074l4.525-3.437H45.8   l4.525,3.437H13.674z M53.788,54.074l-4.51-3.437h7.954l4.526,3.437H53.788z" />
    </g>
  </symbol>
</svg>